<svg width="28" height="28" viewBox="0 0 28 28" fill="none" xmlns="http://www.w3.org/2000/svg">
<path fill-rule="evenodd" clip-rule="evenodd" d="M13.2982 3.01701C13.1677 3.02526 12.9151 3.04906 12.7368 3.0699C9.51245 3.44671 6.62669 5.23146 4.81408 7.96983C3.4313 10.0589 2.80157 12.6067 3.05489 15.0873C3.35577 18.0338 4.82583 20.7274 7.14995 22.5906C8.41971 23.6085 9.94421 24.3501 11.5158 24.7144C14.0304 25.2973 16.6437 24.9824 18.9355 23.8203C21.074 22.736 22.7826 21.0173 23.8435 18.8833C24.1064 18.3544 24.2558 17.9936 24.4364 17.4507C25.0635 15.5657 25.1689 13.5794 24.7444 11.6472C24.1818 9.08695 22.7001 6.79298 20.5775 5.19604C18.8628 3.906 16.8089 3.14956 14.6573 3.01562C14.3136 2.99424 13.6477 2.99491 13.2982 3.01701ZM14.9857 5.46851C16.0184 5.59759 16.8781 5.85107 17.7497 6.28346C19.4323 7.11825 20.8652 8.54945 21.7064 10.2355C22.1998 11.2243 22.4702 12.2227 22.5583 13.3809C22.586 13.744 22.5703 14.614 22.5299 14.9596C22.3003 16.9235 21.4695 18.6263 20.0467 20.0496C19.5995 20.497 19.1497 20.8661 18.6436 21.201C18.3052 21.4249 18.0918 21.5466 17.6858 21.747C16.8044 22.1823 15.961 22.4253 14.9219 22.5434C14.6472 22.5746 13.6608 22.5861 13.3164 22.562C11.5038 22.4356 9.94143 21.8101 8.60034 20.6742C8.35695 20.468 7.74189 19.847 7.48952 19.5526C6.33842 18.2097 5.67458 16.699 5.47121 14.9596C5.4063 14.4045 5.4156 13.4806 5.49216 12.8791C5.7923 10.5207 7.09932 8.39511 9.14275 6.94223C10.272 6.13932 11.6283 5.62526 13.0245 5.47094C13.4166 5.42761 13.4037 5.42807 14.0918 5.43305C14.5654 5.43646 14.8056 5.44599 14.9857 5.46851ZM13.6904 6.42052C13.3934 6.44585 13.0258 6.4918 12.8147 6.53C11.5574 6.7575 10.428 7.26744 9.45781 8.0457C9.17574 8.27194 8.70599 8.72401 8.47393 8.99254C6.72077 11.0212 6.16521 13.9398 7.04108 16.5199C7.36309 17.4685 7.83393 18.2779 8.51558 19.0546C8.71447 19.2812 9.31288 19.8692 9.51254 20.0341C9.71242 20.1993 9.81477 20.2745 9.79483 20.2417C9.78611 20.2273 9.74469 20.1622 9.70278 20.0969C9.29908 19.4684 9.0388 18.72 8.96402 17.9729C8.93619 17.6949 8.95163 17.0341 8.992 16.7754C9.2817 14.9195 10.4579 13.4254 12.1867 12.7172C13.3713 12.2319 14.809 12.2281 16.0106 12.707C17.1942 13.1787 18.153 14.0575 18.7269 15.1968C18.9873 15.7136 19.1324 16.1681 19.2281 16.7663C19.2677 17.0142 19.2841 17.7148 19.2565 17.9822C19.1789 18.7356 18.8823 19.5666 18.4822 20.1517L18.4261 20.2338L18.5166 20.1549C18.5664 20.1114 18.7303 19.972 18.8808 19.8451C19.3906 19.4151 19.732 19.0562 20.0896 18.5742C20.9485 17.4165 21.4628 16.0098 21.5713 14.5216C21.6955 12.817 21.1923 10.9315 20.2076 9.41158C20.0868 9.22503 19.7927 8.82395 19.662 8.66731C19.5793 8.56816 19.298 8.30578 19.0815 8.12578C17.9593 7.19291 16.6481 6.64058 15.1134 6.45423C14.8802 6.4259 13.8997 6.40267 13.6904 6.42052ZM13.6813 13.2635C12.5512 13.4168 11.5517 14.0017 10.8761 14.905C10.0582 15.9985 9.82679 17.4083 10.254 18.6952C10.5414 19.5609 11.1229 20.3196 11.8875 20.8266C12.0799 20.9542 12.4316 21.1509 12.4316 21.1309C12.4316 21.1265 12.3986 21.083 12.3583 21.0342C12.1812 20.82 12.0602 20.4895 12.0327 20.1452C12.0019 19.76 12.0575 19.4417 12.2125 19.1161C12.442 18.634 12.8194 18.2571 13.2964 18.0334C13.9395 17.732 14.7502 17.8181 15.3386 18.2504C16.0515 18.7741 16.3676 19.6798 16.1081 20.4554C16.0416 20.6542 15.9598 20.828 15.8421 21.0203C15.7568 21.1597 15.7562 21.1596 15.9983 21.0471C16.559 20.7864 17.101 20.3031 17.4852 19.7211C18.1282 18.7471 18.3345 17.5284 18.0564 16.3466C17.7695 15.127 16.9899 14.1231 15.9349 13.6148C15.5744 13.4411 15.1449 13.3141 14.7431 13.2626C14.4786 13.2286 13.9345 13.2291 13.6813 13.2635Z" fill="#E53E4B"/>
</svg>
