<svg width="28" height="28" viewBox="0 0 28 28" fill="none" xmlns="http://www.w3.org/2000/svg">
<path fill-rule="evenodd" clip-rule="evenodd" d="M14.6938 19.4226C11.3335 19.8404 4.37931 20.5757 2.7998 19.5291C2.80024 18.4575 4.70696 14.4442 6.16314 11.4751C7.26055 9.23749 8.76366 7.21366 10.0964 5.41918C10.5321 4.83252 10.9497 4.27037 11.3288 3.73328C9.03545 7.14441 4.92685 14.6789 6.32775 17.2163C6.97242 18.8298 12.6131 19.6518 14.6938 19.4226ZM15.9418 4.29823C14.2372 5.12546 11.3316 11.4862 9.98131 14.5915C10.8428 12.6837 14.4205 8.24609 16.1376 8.51216C19.0347 8.5973 23.4303 15.9681 25.1998 19.6781C24.9304 19.0784 24.6588 18.4328 24.3755 17.7592L24.3755 17.7591C23.5089 15.6988 22.5316 13.3751 21.1638 11.2918C19.3488 8.52747 16.8642 4.84393 15.9418 4.29823ZM23.3402 23.5799C23.52 21.6938 19.598 15.9041 17.6478 13.136C18.8293 14.8639 20.7591 20.2275 19.639 21.5558C18.0596 23.9862 9.478 23.9076 5.38893 23.4897C6.04127 23.5715 6.73376 23.6752 7.45644 23.7835L7.45658 23.7835C9.66714 24.1148 12.1602 24.4883 14.6509 24.4034C17.956 24.2907 22.3944 24.084 23.3402 23.5799Z" fill="url(#paint0_linear_972_25649)"/>
<defs>
<linearGradient id="paint0_linear_972_25649" x1="13.9998" y1="3.73328" x2="13.9998" y2="24.4157" gradientUnits="userSpaceOnUse">
<stop stop-color="#C3C8D5"/>
<stop offset="1" stop-color="#8791AB"/>
</linearGradient>
</defs>
</svg>
