<svg width="28" height="28" viewBox="0 0 28 28" fill="none" xmlns="http://www.w3.org/2000/svg">
<path d="M5.52915 17.2456C5.12705 16.207 4.92283 15.1022 4.92705 13.9884C4.93283 12.7913 5.1743 11.607 5.63767 10.5033C6.10104 9.39958 6.77722 8.398 7.62758 7.5558C8.47794 6.7136 9.48582 6.04729 10.5936 5.59492C11.7015 5.14255 12.8875 4.91299 14.084 4.91936C14.5129 4.92101 14.9411 4.95087 15.366 5.00877L14.3399 6.04703H14.0612C11.5628 6.04563 9.20904 7.21748 7.70204 9.21195C6.19503 11.2064 5.70999 13.7921 6.39129 16.1968H13.3708L10.4052 21.6514L17.4292 14.5347H7.84047L18.6436 3.80396C17.1917 3.13982 15.6135 2.79737 14.0171 2.80006C11.5712 2.80261 9.19298 3.6041 7.24403 5.08272C5.29507 6.56133 3.88196 8.6362 3.2195 10.9919C2.55705 13.3476 2.68148 15.8553 3.57388 18.1337C4.46629 20.4122 6.07786 22.3368 8.1636 23.615L11.5085 17.2901L5.52915 17.2456ZM19.8702 4.40602L16.5257 10.7316H22.5127C23.0407 12.1087 23.2259 13.5936 23.0524 15.0582C22.8789 16.5229 22.3519 17.9233 21.5168 19.1387C20.6818 20.3541 19.5637 21.348 18.2591 22.0347C16.9544 22.7214 15.5024 23.0802 14.0283 23.0803C13.5846 23.0786 13.1414 23.0488 12.7014 22.9909L13.716 21.9645H14.0315C16.1458 21.9645 18.1733 21.1244 19.6684 19.6285C21.1634 18.1327 22.0032 16.1046 22.0032 13.9888C21.9938 13.2576 21.8926 12.5305 21.7021 11.8246H14.7194L17.6293 6.32509L10.4718 13.4526H20.0826L9.4018 24.2279C12.0032 25.3873 14.9478 25.5144 17.6393 24.5836C20.3309 23.6527 22.5684 21.7334 23.8989 19.2142C25.2294 16.6951 25.5535 13.7642 24.8056 11.0149C24.0577 8.26564 22.2937 5.90339 19.8706 4.40637L19.8702 4.40602Z" fill="url(#paint0_linear_972_25646)"/>
<defs>
<linearGradient id="paint0_linear_972_25646" x1="13.9998" y1="2.80005" x2="13.9998" y2="25.2" gradientUnits="userSpaceOnUse">
<stop stop-color="#C3C8D5"/>
<stop offset="1" stop-color="#8791AB"/>
</linearGradient>
</defs>
</svg>
